<svg width="39" height="28" viewBox="0 0 39 28" fill="none" xmlns="http://www.w3.org/2000/svg">
<mask id="mask0_1670_592" style="mask-type:luminance" maskUnits="userSpaceOnUse" x="0" y="0" width="39" height="28">
<path d="M0.316895 0H38.2814V28H0.316895V0Z" fill="white"/>
</mask>
<g mask="url(#mask0_1670_592)">
<path d="M38.2814 13.3745V14.6244C38.2695 14.6922 38.2545 14.7588 38.2467 14.8263C38.182 15.3699 38.1402 15.9171 38.0508 16.4567C37.759 18.2106 37.1281 19.8407 36.1907 21.348C34.7671 23.6365 32.8426 25.3816 30.4242 26.5734C29.0283 27.2645 27.5233 27.7086 25.9759 27.886C25.6322 27.9257 25.2888 27.9613 24.9451 27.9992H11.6078C11.5406 27.9867 11.4738 27.9667 11.406 27.9626C10.0611 27.8779 8.7672 27.5714 7.5339 27.0318C4.84889 25.8569 2.84692 23.9527 1.53645 21.3318C0.957368 20.1757 0.582614 18.9282 0.428757 17.6444C0.390949 17.3322 0.354078 17.0204 0.316895 16.7085V15.4959C0.329706 15.4287 0.349391 15.3615 0.353453 15.294C0.423133 14.1288 0.662168 12.9974 1.08306 11.91C2.21574 8.98409 4.19021 6.81402 6.99615 5.40949C8.45192 4.68051 10.0036 4.29743 11.6266 4.21244C12.4212 4.17119 13.2151 4.21556 14.0051 4.32149C14.0766 4.33118 14.1797 4.2993 14.2294 4.24837C15.3652 3.08819 16.6585 2.1458 18.1168 1.4315C19.5313 0.738765 21.0199 0.292252 22.5869 0.113522C22.9556 0.0713395 23.3253 0.0366559 23.6946 -0.00146484H24.8317C24.906 0.0100964 24.9807 0.0232199 25.0551 0.0319689C25.6184 0.0975866 26.1849 0.138832 26.743 0.232259C28.4841 0.524414 30.1048 1.14934 31.6046 2.07768C33.9044 3.50127 35.657 5.42824 36.8544 7.85422C37.5468 9.25072 37.9914 10.7569 38.1683 12.3056C38.2089 12.6621 38.2436 13.0186 38.2814 13.3745ZM17.0541 5.28701C17.0769 5.317 17.0825 5.33106 17.0922 5.33575C17.873 5.72064 18.6194 6.17194 19.3229 6.68466C19.3673 6.71685 19.4773 6.70341 19.531 6.66966C21.4645 5.44449 23.5605 5.02172 25.8122 5.42105C28.0185 5.81226 29.8139 6.91464 31.1856 8.67538C32.7389 10.668 33.331 12.9212 32.9023 15.4281C32.6148 17.1082 31.9418 18.6155 30.7979 19.8782C28.7106 22.1801 26.0968 23.1322 23.02 22.7291C21.1258 22.481 19.4907 21.6639 18.1374 20.2963C16.4004 18.5418 14.6522 16.7988 12.9102 15.049C12.678 14.8159 12.4196 14.6285 12.0853 14.5875C11.5013 14.516 10.9713 14.8075 10.7192 15.3321C10.4942 15.8005 10.5233 16.3286 11.0113 16.8085C12.9533 18.7149 14.8781 20.6387 16.8179 22.547C17.1499 22.8752 17.5059 23.1782 17.8831 23.4534C19.3001 24.4824 20.8977 25.0514 22.6278 25.2804C23.9858 25.4597 25.3332 25.4213 26.6702 25.1207C29.2205 24.548 31.3331 23.2462 32.997 21.2377C34.3709 19.5779 35.2017 17.6706 35.4914 15.5293C35.6593 14.3082 35.6242 13.0678 35.3877 11.8581C35.0018 9.88024 34.165 8.11044 32.8242 6.60405C30.266 3.73156 27.0477 2.4492 23.2178 2.73542C21.7445 2.8454 20.3509 3.27817 19.0395 3.96465C18.3318 4.33234 17.6661 4.77571 17.0541 5.28701ZM16.117 25.3398C16.0643 25.2909 16.0118 25.2419 15.9595 25.1926C15.1655 24.443 14.3672 23.6981 13.5826 22.9388C13.4307 22.7919 13.2911 22.7204 13.0761 22.7254C12.2815 22.7447 11.4863 22.7482 10.7032 22.5713C6.80992 21.6908 4.54923 17.4578 5.98407 13.7332C7.11582 10.7964 10.2489 9.00784 13.3386 9.55934C14.7234 9.8065 15.9389 10.3927 16.9366 11.4216C18.1533 12.6777 19.4063 13.8979 20.6362 15.1412C20.9162 15.4243 21.2377 15.5534 21.6254 15.4981C22.1266 15.4265 22.5257 15.1878 22.7069 14.6963C22.8844 14.2126 22.7984 13.7545 22.4322 13.3836C21.1414 12.0759 19.8813 10.7355 18.5383 9.48341C15.9336 7.054 12.8621 6.33158 9.46493 7.36459C4.89576 8.75287 2.22168 13.4711 3.26563 18.1268C4.21708 22.3688 7.92698 25.346 12.2681 25.3498C13.4801 25.351 14.6925 25.3504 15.9045 25.3498C15.9645 25.3498 16.0245 25.3445 16.117 25.3398Z" fill="#08182C"/>
</g>
</svg>
