<svg width="110" height="46" viewBox="0 0 110 46" fill="none" xmlns="http://www.w3.org/2000/svg">
<path d="M66.4749 29.4014H63.3811L62.4846 26.5977H58.0022L57.1145 29.4014H54.0383L58.6262 16.7979H61.9924L66.4749 29.4014ZM61.8342 24.418L60.4807 20.1816C60.3811 19.8652 60.3108 19.4873 60.2698 19.0479H60.1995C60.1702 19.417 60.0969 19.7832 59.9797 20.1465L58.6086 24.418H61.8342ZM74.9036 29.4014H66.8264V28.25L71.344 22.4492H67.2747V20.4014H74.8684V21.7725L70.5881 27.3535H74.9036V29.4014ZM84.9583 29.4014H82.1897V28.0303H82.1458C81.4602 29.0908 80.5432 29.6211 79.3948 29.6211C77.3088 29.6211 76.2659 28.3584 76.2659 25.833V20.4014H79.0344V25.5869C79.0344 26.8584 79.5383 27.4941 80.5461 27.4941C81.0442 27.4941 81.4426 27.3213 81.7415 26.9756C82.0403 26.624 82.1897 26.1494 82.1897 25.5518V20.4014H84.9583V29.4014ZM93.176 22.9062C92.842 22.7246 92.4524 22.6338 92.0071 22.6338C91.4036 22.6338 90.9319 22.8564 90.592 23.3018C90.2522 23.7412 90.0823 24.3418 90.0823 25.1035V29.4014H87.3049V20.4014H90.0823V22.0713H90.1174C90.5569 20.8525 91.3479 20.2432 92.4905 20.2432C92.7834 20.2432 93.012 20.2783 93.176 20.3486V22.9062ZM102.492 25.6924H96.6213C96.7151 26.999 97.5383 27.6523 99.0911 27.6523C100.081 27.6523 100.951 27.418 101.701 26.9492V28.9531C100.869 29.3984 99.7883 29.6211 98.4583 29.6211C97.0051 29.6211 95.8772 29.2197 95.0745 28.417C94.2717 27.6084 93.8704 26.4834 93.8704 25.042C93.8704 23.5479 94.304 22.3643 95.1711 21.4912C96.0383 20.6182 97.1047 20.1816 98.3704 20.1816C99.6829 20.1816 100.697 20.5713 101.411 21.3506C102.132 22.1299 102.492 23.1875 102.492 24.5234V25.6924ZM99.9172 23.9873C99.9172 22.6982 99.3958 22.0537 98.3528 22.0537C97.9075 22.0537 97.5208 22.2383 97.1926 22.6074C96.8704 22.9766 96.6741 23.4365 96.6038 23.9873H99.9172ZM105.384 29.6211C104.927 29.6211 104.546 29.4805 104.241 29.1992C103.937 28.918 103.784 28.5723 103.784 28.1621C103.784 27.7402 103.94 27.3945 104.25 27.125C104.567 26.8555 104.959 26.7207 105.428 26.7207C105.903 26.7207 106.289 26.8584 106.588 27.1338C106.893 27.4033 107.045 27.7461 107.045 28.1621C107.045 28.5898 106.89 28.9414 106.579 29.2168C106.275 29.4863 105.876 29.6211 105.384 29.6211Z" fill="#08182C"/>
<path d="M16.1403 3.27832H28.5274L15.6684 41.378C15.5362 41.7695 15.2846 42.1097 14.949 42.3507C14.6133 42.5917 14.2106 42.7214 13.7974 42.7215H4.15719C3.84411 42.7215 3.53553 42.647 3.25696 42.5041C2.9784 42.3613 2.73786 42.1541 2.55525 41.8998C2.37264 41.6455 2.2532 41.3514 2.20682 41.0417C2.16044 40.7321 2.18844 40.4159 2.28852 40.1193L14.2688 4.62178C14.4009 4.23011 14.6526 3.88976 14.9883 3.64866C15.3241 3.40756 15.727 3.27834 16.1403 3.27832Z" fill="#08182C"/>
<path d="M34.1406 28.833H14.4978C14.3152 28.8328 14.1367 28.8876 13.9857 28.9903C13.8346 29.0929 13.718 29.2387 13.651 29.4086C13.584 29.5785 13.5698 29.7646 13.6101 29.9427C13.6503 30.1208 13.7433 30.2827 13.8769 30.4072L26.499 42.1882C26.8665 42.531 27.3504 42.7216 27.8529 42.7214H38.9755L34.1406 28.833Z" fill="#394656"/>
<path d="M16.1405 3.27833C15.7226 3.27673 15.3152 3.40878 14.9777 3.65519C14.6403 3.9016 14.3904 4.24946 14.2647 4.64796L2.30344 40.0869C2.19662 40.3847 2.16309 40.7037 2.20567 41.0171C2.24825 41.3306 2.3657 41.6291 2.54807 41.8876C2.73044 42.146 2.97237 42.3567 3.2534 42.5019C3.53443 42.647 3.84628 42.7224 4.16259 42.7215H14.0516C14.4199 42.6557 14.7641 42.4933 15.0491 42.2509C15.3341 42.0086 15.5497 41.6949 15.6738 41.3419L18.0591 34.312L26.5794 42.2591C26.9365 42.5544 27.3844 42.7177 27.8477 42.7215H38.9289L34.0688 28.8331L19.9011 28.8364L28.5723 3.27833H16.1405Z" fill="url(#paint0_linear_1670_584)"/>
<path d="M31.9617 4.61988C31.8298 4.22884 31.5785 3.88905 31.2433 3.64838C30.908 3.4077 30.5057 3.27827 30.093 3.27832H16.2878C16.7005 3.27834 17.1028 3.4078 17.438 3.64847C17.7732 3.88913 18.0245 4.22888 18.1565 4.61988L30.1373 40.1188C30.2374 40.4155 30.2655 40.7318 30.2192 41.0415C30.1728 41.3512 30.0534 41.6454 29.8708 41.8998C29.6882 42.1542 29.4476 42.3614 29.169 42.5044C28.8904 42.6474 28.5818 42.722 28.2686 42.722H42.0743C42.3874 42.7219 42.696 42.6473 42.9745 42.5042C43.2531 42.3612 43.4936 42.154 43.6761 41.8996C43.8587 41.6452 43.978 41.351 44.0244 41.0414C44.0707 40.7317 44.0426 40.4155 43.9425 40.1188L31.9617 4.61988Z" fill="url(#paint1_linear_1670_584)"/>
<defs>
<linearGradient id="paint0_linear_1670_584" x1="24.6736" y1="23.9121" x2="21.698" y2="24.9183" gradientUnits="userSpaceOnUse">
<stop stop-opacity="0.3"/>
<stop offset="0.071" stop-opacity="0.2"/>
<stop offset="0.321" stop-opacity="0.1"/>
<stop offset="0.623" stop-opacity="0.05"/>
<stop offset="1" stop-opacity="0"/>
</linearGradient>
<linearGradient id="paint1_linear_1670_584" x1="23.037" y1="5.09275" x2="37.1581" y2="42.7139" gradientUnits="userSpaceOnUse">
<stop stop-color="#88909A"/>
<stop offset="1" stop-color="#394656"/>
</linearGradient>
</defs>
</svg>
