<svg width="134" height="30" viewBox="0 0 134 30" fill="none" xmlns="http://www.w3.org/2000/svg">
<mask id="mask0_1691_2357" style="mask-type:luminance" maskUnits="userSpaceOnUse" x="0" y="0" width="134" height="30">
<path d="M133.165 0H0.643066V30H133.165V0Z" fill="white"/>
</mask>
<g mask="url(#mask0_1691_2357)">
<path d="M38.2067 12.3259C37.2704 11.6984 34.8107 11.4305 33.0227 11.9103C32.9267 10.1373 32.0076 8.643 30.3274 7.33909L29.7058 6.92373L29.2913 7.54718C28.4764 8.778 28.133 10.4187 28.2544 11.9103C28.3504 12.8294 28.6711 13.8619 29.2913 14.6114C26.9638 15.9554 24.818 15.6502 15.3164 15.6502H0.646801C0.604228 17.7862 0.948874 21.894 3.57325 25.2382C3.8634 25.608 4.1808 25.965 4.52599 26.3092C6.65981 28.4362 9.88372 29.9959 14.7044 30C22.0591 30.0068 28.3599 26.0493 32.1934 16.4817C33.4544 16.5019 36.7839 16.7067 38.4134 13.5725C38.4533 13.5199 38.828 12.7418 38.828 12.7418L38.2067 12.3265V12.3259ZM10.2205 10.3729H6.09554V14.4791H10.2205V10.3729ZM15.5494 10.3729H11.4244V14.4791H15.5494V10.3729ZM20.8787 10.3729H16.7537V14.4791H20.8787V10.3729ZM26.2081 10.3729H22.0831V14.4791H26.2081V10.3729ZM4.89118 10.3729H0.766038V14.4791H4.89118V10.3729ZM10.2205 5.18673H6.09554V9.29291H10.2205V5.18673ZM15.5494 5.18673H11.4244V9.29291H15.5494V5.18673ZM20.8787 5.18673H16.7537V9.29291H20.8787V5.18673ZM20.8787 0H16.7537V4.10618H20.8787V0Z" fill="#08182C"/>
<path d="M132.908 23.6984C132.908 24.7688 132.064 25.6094 130.966 25.6094C129.868 25.6094 129.011 24.7688 129.011 23.6984C129.011 22.6279 129.879 21.8105 130.966 21.8105C132.053 21.8105 132.908 22.6511 132.908 23.6984ZM129.498 23.6984C129.498 24.5389 130.122 25.2063 130.978 25.2063C131.833 25.2063 132.423 24.5389 132.423 23.7101C132.423 22.8815 131.81 22.1905 130.967 22.1905C130.124 22.1905 129.498 22.8698 129.498 23.6984H129.498ZM130.666 24.6886H130.227V22.8008C130.399 22.7665 130.643 22.7433 130.954 22.7433C131.313 22.7433 131.475 22.8008 131.614 22.8815C131.718 22.962 131.799 23.1117 131.799 23.2958C131.799 23.5034 131.637 23.6645 131.406 23.7333V23.7565C131.59 23.8249 131.695 23.9635 131.753 24.2165C131.81 24.5043 131.845 24.6196 131.892 24.6886H131.418C131.36 24.6196 131.324 24.4473 131.267 24.228C131.233 24.021 131.117 23.9288 130.874 23.9288H130.666V24.6892V24.6886ZM130.677 23.6182H130.885C131.128 23.6182 131.324 23.5377 131.324 23.3422C131.324 23.1693 131.197 23.0534 130.919 23.0534C130.804 23.0534 130.723 23.0654 130.677 23.0776V23.6182Z" fill="#08182C"/>
<path d="M58.3979 4.59334C58.1257 4.32906 57.7992 4.19434 57.4081 4.19434C57.0168 4.19434 56.6808 4.32906 56.4189 4.59334C56.1566 4.85788 56.0284 5.19715 56.0284 5.60134V12.3497C54.6828 11.2424 53.1296 10.6839 51.3634 10.6839C49.31 10.6839 47.5545 11.4222 46.0998 12.9036C44.645 14.3799 43.9229 16.1657 43.9229 18.2605C43.9229 20.3551 44.6502 22.136 46.0998 23.6174C47.5545 25.0937 49.3057 25.8369 51.3634 25.8369C53.4209 25.8369 55.1527 25.0986 56.6268 23.6174C58.0815 22.1559 58.8037 20.3703 58.8037 18.2605V5.60134C58.8037 5.19715 58.6703 4.85788 58.3979 4.59334ZM55.6621 20.0862V20.0962C55.4197 20.6698 55.088 21.1735 54.6678 21.6025C54.2478 22.0364 53.7525 22.3757 53.1888 22.6299C52.6199 22.8843 52.0163 23.0092 51.3683 23.0092C50.7206 23.0092 50.1023 22.8843 49.5331 22.6299C48.9642 22.3757 48.4744 22.0364 48.0593 21.6074C47.6437 21.1784 47.3126 20.675 47.0701 20.1012C46.8277 19.5224 46.7039 18.9093 46.7039 18.2605C46.7039 17.6117 46.8277 16.9983 47.0701 16.4196C47.3126 15.8409 47.6442 15.3423 48.0593 14.9133C48.4749 14.4843 48.9694 14.1453 49.5331 13.8909C50.1023 13.6367 50.7108 13.5118 51.3683 13.5118C52.0259 13.5118 52.6199 13.6367 53.1888 13.8909C53.7577 14.1453 54.2478 14.4843 54.6678 14.9185C55.088 15.3524 55.4197 15.8562 55.6621 16.4248C55.9046 16.9983 56.0284 17.6071 56.0284 18.2553C56.0284 18.9036 55.9046 19.5175 55.6621 20.0862Z" fill="#08182C"/>
<path d="M119.869 15.3534C119.508 14.4553 118.958 13.6425 118.236 12.9141L118.226 12.9089C116.757 11.4326 115 10.6895 112.963 10.6895C110.925 10.6895 109.154 11.4275 107.699 12.9089C106.244 14.3852 105.522 16.1713 105.522 18.2658C105.522 20.3604 106.25 22.1413 107.699 23.6227C109.154 25.099 110.905 25.8422 112.963 25.8422C114.832 25.8422 116.45 25.2291 117.825 24.0021C118.092 23.7228 118.226 23.3838 118.226 22.9892C118.226 22.5948 118.098 22.246 117.835 21.9815C117.573 21.7169 117.242 21.5825 116.846 21.5825C116.5 21.5925 116.193 21.7074 115.931 21.9367C115.516 22.2956 115.065 22.5703 114.576 22.75C114.086 22.9297 113.552 23.0197 112.968 23.0197C112.454 23.0197 111.959 22.9401 111.489 22.7756C111.019 22.6112 110.579 22.3862 110.188 22.0922C109.792 21.7976 109.451 21.4491 109.159 21.0348C108.867 20.6255 108.645 20.1716 108.497 19.6731H119.019C119.409 19.6731 119.736 19.5386 120.008 19.2741C120.281 19.0095 120.414 18.6705 120.414 18.2664C120.414 17.2191 120.23 16.2465 119.87 15.3534H119.869ZM108.486 16.8596C108.629 16.3657 108.847 15.9119 109.139 15.4982C109.431 15.0888 109.777 14.7351 110.173 14.4405C110.574 14.1463 111.008 13.9218 111.488 13.7574C111.968 13.5929 112.457 13.513 112.963 13.513C113.469 13.513 113.957 13.5929 114.431 13.7574C114.906 13.9218 115.343 14.1463 115.733 14.4405C116.129 14.7351 116.475 15.0839 116.766 15.4982C117.063 15.9073 117.287 16.3611 117.44 16.8596H108.485H108.486Z" fill="#08182C"/>
<path d="M132.799 11.6367C132.551 11.3926 132.239 11.2028 131.864 11.0631C131.488 10.9235 131.077 10.8286 130.627 10.7738C130.182 10.7189 129.761 10.6938 129.371 10.6938C128.485 10.6938 127.654 10.8387 126.873 11.128C126.091 11.4174 125.369 11.8311 124.705 12.3698V12.1008C124.705 11.7119 124.572 11.3825 124.299 11.1081C124.028 10.834 123.706 10.6944 123.326 10.6944C122.945 10.6944 122.608 10.834 122.336 11.1081C122.064 11.3825 121.931 11.7168 121.931 12.1008V24.436C121.931 24.8249 122.064 25.1544 122.336 25.4285C122.608 25.7028 122.934 25.8422 123.326 25.8422C123.717 25.8422 124.033 25.7028 124.299 25.4285C124.572 25.1544 124.705 24.8198 124.705 24.436V18.2658C124.705 17.6075 124.829 16.9892 125.072 16.4105C125.314 15.8315 125.646 15.3332 126.066 14.9042C126.487 14.4752 126.982 14.1359 127.545 13.8913C128.114 13.642 128.718 13.5171 129.367 13.5171C130.015 13.5171 130.627 13.6319 131.187 13.8561C131.409 13.9562 131.602 14.0061 131.771 14.0061C131.963 14.0061 132.146 13.9709 132.314 13.8965C132.482 13.8218 132.631 13.7217 132.755 13.5924C132.879 13.4628 132.977 13.3131 133.051 13.1383C133.126 12.9689 133.166 12.784 133.166 12.5847C133.166 12.1958 133.042 11.8816 132.795 11.6367H132.799H132.799Z" fill="#08182C"/>
<path d="M74.7128 15.358C74.3517 14.4651 73.8123 13.6472 73.0854 12.9092C71.6165 11.4326 69.8604 10.6895 67.8221 10.6895C65.7834 10.6895 64.0132 11.4277 62.5584 12.9092C61.1037 14.3855 60.3821 16.1713 60.3821 18.2661C60.3821 20.3606 61.1094 22.1415 62.5584 23.623C64.0132 25.0993 65.7644 25.8425 67.8221 25.8425C69.8798 25.8425 71.6114 25.1042 73.0854 23.623C74.5402 22.1612 75.2624 20.3759 75.2624 18.2661C75.2523 17.2185 75.0693 16.2512 74.7134 15.358H74.7128ZM72.1208 20.0865V20.0966C71.8784 20.6705 71.5467 21.1739 71.1264 21.6029C70.7064 22.0371 70.2112 22.3761 69.6474 22.6305C69.0837 22.8847 68.475 23.0096 67.827 23.0096C67.1793 23.0096 66.561 22.8847 65.9921 22.6305C65.4229 22.3761 64.9331 22.0371 64.518 21.6081C64.1023 21.1791 63.7713 20.6754 63.5288 20.1018C63.2864 19.5231 63.1625 18.9097 63.1625 18.2609C63.1625 17.6121 63.2864 16.9987 63.5288 16.42C63.7713 15.8413 64.1029 15.3427 64.518 14.9137C64.9336 14.4847 65.4281 14.1457 65.9921 13.8913C66.561 13.6371 67.1694 13.5122 67.827 13.5122C68.4845 13.5122 69.0785 13.6371 69.6474 13.8913C70.2164 14.1457 70.7064 14.4847 71.1264 14.9189C71.5467 15.3531 71.8784 15.8565 72.1208 16.4252C72.3633 16.9987 72.4871 17.6075 72.4871 18.2557C72.4871 18.904 72.3633 19.5179 72.1208 20.0865Z" fill="#08182C"/>
<path d="M104.472 12.0962C104.472 11.9069 104.432 11.7272 104.358 11.5576C104.284 11.3879 104.185 11.2338 104.061 11.1037C103.938 10.9742 103.789 10.8692 103.621 10.7996C103.453 10.7301 103.27 10.69 103.077 10.69C102.8 10.69 102.553 10.7601 102.335 10.9049L94.3907 16.1675V5.61237C94.3907 5.21337 94.2574 4.87928 93.9852 4.60464C93.7133 4.33055 93.392 4.19092 93.011 4.19092C92.63 4.19092 92.2937 4.33055 92.0213 4.60464C91.7494 4.87874 91.6157 5.21337 91.6157 5.61237V24.4169C91.6157 24.8058 91.7494 25.1405 92.0213 25.4195C92.2932 25.6987 92.6196 25.8384 93.011 25.8384C93.4021 25.8384 93.7185 25.6987 93.9852 25.4195C94.2574 25.1405 94.3907 24.8058 94.3907 24.4169V19.5337L96.0135 18.4513L102.153 25.4694C102.4 25.7135 102.712 25.8332 103.083 25.8332C103.276 25.8332 103.458 25.7983 103.626 25.7235C103.795 25.6535 103.943 25.549 104.067 25.4195C104.19 25.2902 104.289 25.1405 104.364 24.9656C104.438 24.7963 104.477 24.6114 104.477 24.427C104.477 24.058 104.349 23.7285 104.091 23.4397L98.3772 16.8907L103.942 13.2097C104.298 12.9654 104.471 12.5915 104.471 12.0872V12.0973L104.472 12.0962Z" fill="#08182C"/>
<path d="M80.9498 14.9041C81.3749 14.4751 81.8702 14.1358 82.4391 13.8911C83.008 13.6419 83.6116 13.517 84.2593 13.517C84.8432 13.517 85.3827 13.6171 85.8823 13.8161C86.3768 14.0155 86.8521 14.3101 87.3016 14.6938C87.5686 14.9079 87.8708 15.0175 88.2068 15.0175C88.6077 15.0175 88.9341 14.8831 89.1965 14.6136C89.4589 14.3439 89.587 14.0049 89.587 13.6007C89.587 13.1965 89.4286 12.8223 89.1073 12.5335C87.7418 11.3065 86.1248 10.6929 84.2593 10.6929C82.2062 10.6929 80.4507 11.4309 78.9959 12.9123C77.5412 14.3886 76.8196 16.1747 76.8196 18.2692C76.8196 20.3638 77.5469 22.1447 78.9959 23.6262C80.4507 25.1024 82.2019 25.8456 84.2593 25.8456C86.1196 25.8456 87.7371 25.2325 89.1073 24.0047C89.3991 23.7058 89.548 23.3616 89.548 22.9626C89.548 22.5636 89.419 22.2194 89.1572 21.9549C88.8949 21.6903 88.564 21.5559 88.168 21.5559C87.832 21.566 87.5397 21.6655 87.2926 21.8548C86.8475 22.2437 86.3825 22.5331 85.8829 22.7275C85.3881 22.922 84.8489 23.0169 84.2601 23.0169C83.6121 23.0169 83.0086 22.892 82.4397 22.6427C81.8708 22.3934 81.376 22.0544 80.9503 21.6303C80.5251 21.2065 80.1883 20.6979 79.9459 20.1241C79.7034 19.5453 79.5796 18.9271 79.5796 18.2687C79.5796 17.6101 79.7034 16.9918 79.9459 16.4131C80.1883 15.8343 80.5243 15.3358 80.9503 14.9068V14.9019L80.9498 14.9041Z" fill="#08182C"/>
</g>
</svg>
