<svg width="28" height="40" viewBox="0 0 28 40" fill="none" xmlns="http://www.w3.org/2000/svg">
<path fill-rule="evenodd" clip-rule="evenodd" d="M7.48558 14.966C4.70441 14.966 2.44983 17.2198 2.44983 20C2.44983 22.7802 4.70441 25.034 7.48558 25.034H12.6574V20V14.966H7.48558ZM20.143 12.517L20.2791 12.517C23.0603 12.517 25.3149 10.2632 25.3149 7.48299C25.3149 4.70278 23.0603 2.44898 20.2791 2.44898H15.1073V12.517L20.143 12.517ZM24.3841 13.7415C26.4203 12.4042 27.7647 10.1005 27.7647 7.48299C27.7647 3.35025 24.4133 0 20.2791 0H15.1073H13.8823H12.6574H7.48558C3.35141 0 0 3.35025 0 7.48299C0 10.1005 1.34442 12.4042 3.38063 13.7415C1.34442 15.0788 0 17.3825 0 20C0 22.6175 1.34442 24.9212 3.38063 26.2585C1.34442 27.5958 0 29.8995 0 32.517C0 36.6583 3.39386 40 7.51942 40C11.6826 40 15.1073 36.6279 15.1073 32.449V27.483V26.2585V25.5367C16.4369 26.7459 18.2038 27.483 20.143 27.483H20.2791C24.4133 27.483 27.7647 24.1327 27.7647 20C27.7647 17.3825 26.4203 15.0788 24.3841 13.7415ZM20.2791 14.966L20.143 14.966C17.3618 14.966 15.1073 17.2198 15.1073 20C15.1073 22.7802 17.3618 25.034 20.143 25.034H20.2791C23.0603 25.034 25.3149 22.7802 25.3149 20C25.3149 17.2198 23.0603 14.966 20.2791 14.966ZM2.44983 32.517C2.44983 29.7368 4.70441 27.483 7.48558 27.483H12.6574V32.449C12.6574 35.2582 10.3468 37.551 7.51942 37.551C4.72964 37.551 2.44983 35.2886 2.44983 32.517ZM12.6574 12.517H7.48558C4.70441 12.517 2.44983 10.2632 2.44983 7.48299C2.44983 4.70278 4.70441 2.44898 7.48558 2.44898H12.6574V12.517Z" fill="black"/>
</svg>
