<svg width="51" height="50" viewBox="0 0 51 50" fill="none" xmlns="http://www.w3.org/2000/svg">
<path d="M11.4194 0H13.6655V2.22656H15.7358V0H17.9819V6.73828H15.7358V4.49219H13.6851V6.73828H11.4194M20.9507 2.24609H18.9683V0H25.189V2.24609H23.1968V6.73828H20.9507M26.1753 0H28.5288L29.9741 2.37305L31.4194 0H33.7729V6.73828H31.5269V3.39844L29.9546 5.82031L28.3823 3.39844V6.73828H26.1753M34.8862 0H37.1323V4.51172H40.3159V6.73828H34.8862" fill="#08182C"/>
<path d="M11.3413 45.9961L8.11865 9.82422H43.5483L40.3257 45.9766L25.8042 50" fill="#08182C"/>
<path d="M25.8335 46.9238V12.793H40.3159L37.5522 43.6523" fill="#394656"/>
<path d="M14.7007 17.2168H25.8335V21.6504H19.564L19.9741 26.1914H25.8335V30.6152H15.9116M16.1069 32.8418H20.5601L20.8726 36.3867L25.8335 37.7148V42.3438L16.7319 39.8047" fill="#F5F6F7"/>
<path d="M36.9272 17.2168H25.814V21.6504H36.5171M36.1167 26.1914H25.814V30.625H31.2827L30.7651 36.3867L25.814 37.7148V42.3242L34.896 39.8047" fill="white"/>
</svg>
