<svg xmlns="http://www.w3.org/2000/svg" width="40" height="39" fill="none" viewBox="0 0 40 39">
    <g clip-path="url(#clip0)">
        <path fill="#FAB446" d="M36.228 6.724H3.07c-1.614 0-2.921 1.308-2.921 2.92v5.597h39V9.645c0-1.613-1.308-2.92-2.921-2.92z"/>
        <path fill="#73AF00" d="M.149 29.355c0 1.613 1.307 2.921 2.92 2.921h33.159c1.613 0 2.92-1.308 2.92-2.92v-5.597h-39v5.596z"/>
        <path fill="#F5F5F5" d="M39.149 15.241h-39v8.517h39v-8.517z"/>
        <path fill="#41479B" d="M19.649 23.114c-1.993 0-3.614-1.621-3.614-3.614 0-1.993 1.62-3.614 3.614-3.614 1.993 0 3.614 1.621 3.614 3.614 0 1.993-1.621 3.614-3.614 3.614zm0-6.556c-1.623 0-2.942 1.32-2.942 2.942s1.32 2.942 2.942 2.942 2.942-1.32 2.942-2.942-1.32-2.942-2.942-2.942z"/>
        <path fill="#41479B" d="M19.649 19.91c.226 0 .41-.184.41-.41 0-.226-.184-.41-.41-.41-.227 0-.41.184-.41.41 0 .226.183.41.41.41z"/>
        <path fill="#41479B" d="M19.649 19.562l-1.041.105-2.237-.105v-.123l2.237-.105 1.04.105v.123z"/>
        <path fill="#41479B" d="M19.649 19.562l1.041.105 2.237-.105v-.123l-2.237-.105-1.041.105v.123z"/>
        <path fill="#41479B" d="M19.587 19.5l-.105-1.042.105-2.236h.123l.105 2.236-.105 1.042h-.123z"/>
        <path fill="#41479B" d="M19.587 19.5l-.105 1.041.105 2.237h.123l.105-2.237-.105-1.041h-.123z"/>
        <path fill="#41479B" d="M19.605 19.543l-.81-.661-1.508-1.656.087-.087 1.656 1.507.662.81-.087.087zM19.605 19.543l.662.811 1.656 1.507.087-.087-1.507-1.656-.81-.662-.088.087z"/>
        <path fill="#41479B" d="M19.605 19.457l.662-.811 1.656-1.507.087.087-1.507 1.656-.81.661-.088-.086z"/>
        <path fill="#41479B" d="M19.605 19.456l-.81.662-1.508 1.656.087.087 1.656-1.507.662-.81-.087-.088z"/>
        <path fill="#41479B" d="M19.672 19.556l-.922.496-2.106.759-.047-.114 2.026-.953 1.002-.301.047.113zM19.672 19.556l1.002-.3 2.027-.954-.047-.113-2.107.758-.922.496.047.113z"/>
        <path fill="#41479B" d="M19.592 19.524l-.496-.922-.758-2.107.113-.047.953 2.026.302 1.003-.114.047z"/>
        <path fill="#41479B" d="M19.592 19.524l.301 1.002.953 2.026.114-.047-.759-2.107-.495-.921-.114.047z"/>
        <path fill="#41479B" d="M19.625 19.556l-1.002-.3-2.026-.954.047-.113 2.107.758.921.496-.047.113zM19.625 19.556l.922.496 2.107.759.047-.114-2.027-.953-1.002-.301-.047.113z"/>
        <path fill="#41479B" d="M19.592 19.477l.301-1.003.953-2.026.114.047-.759 2.107-.495.922-.114-.047z"/>
        <path fill="#41479B" d="M19.592 19.477l-.496.921-.758 2.107.113.047.953-2.026.302-1.002-.114-.047z"/>
        <path fill="#F5F5F5" d="M19.649 20.053c.305 0 .552-.248.552-.553 0-.305-.247-.553-.552-.553-.306 0-.553.248-.553.553 0 .305.247.553.553.553z"/>
        <path fill="#41479B" d="M19.649 19.831c.183 0 .331-.148.331-.331 0-.183-.148-.331-.331-.331-.183 0-.332.148-.332.33 0 .184.149.332.332.332z"/>
    </g>
    <defs>
        <clipPath id="clip0">
            <path fill="#fff" d="M0 0H39V39H0z" transform="translate(.149)"/>
        </clipPath>
    </defs>
</svg>
