<svg width="112" height="32" viewBox="0 0 112 32" fill="none" xmlns="http://www.w3.org/2000/svg">
<path fill-rule="evenodd" clip-rule="evenodd" d="M42.798 7.37082V21.7992H48.0558V24.2878H39.9987V7.37082H42.798ZM57.9375 14.5482V13.0266H60.5903V24.2878H57.9369V22.7649C57.5803 23.3289 57.0729 23.7722 56.4152 24.0942C55.7588 24.4161 55.0973 24.577 54.4321 24.577C53.572 24.577 52.7847 24.4199 52.0711 24.1061C51.3763 23.8057 50.7508 23.3657 50.2332 22.8134C49.7216 22.265 49.3172 21.6256 49.0411 20.9283C48.7541 20.2055 48.6094 19.4342 48.6147 18.6566C48.6147 17.8675 48.7569 17.1142 49.0411 16.3968C49.3154 15.6952 49.7199 15.0518 50.2332 14.5004C50.7508 13.948 51.3763 13.5077 52.0711 13.207C52.7847 12.8927 53.572 12.7355 54.4321 12.7355C55.0973 12.7355 55.7588 12.8971 56.4159 13.2196C57.0729 13.5415 57.5803 13.9848 57.9375 14.5482ZM57.6935 20.0342C57.8568 19.5936 57.9395 19.1271 57.9375 18.6572C57.9375 18.173 57.8557 17.7141 57.6935 17.2789C57.5411 16.8604 57.31 16.475 57.0126 16.1434C56.7149 15.8173 56.3549 15.5543 55.9537 15.37C55.5394 15.177 55.081 15.0801 54.578 15.0801C54.075 15.0801 53.6204 15.177 53.2148 15.37C52.8093 15.5637 52.4603 15.8215 52.1685 16.1434C51.8718 16.4734 51.6443 16.8595 51.4995 17.2789C51.3438 17.7214 51.2655 18.1875 51.2682 18.6566C51.2682 19.1401 51.3449 19.5997 51.4995 20.0336C51.6442 20.4533 51.8717 20.8397 52.1685 21.1698C52.463 21.4939 52.8185 21.7567 53.2148 21.9431C53.6204 22.1368 54.075 22.233 54.578 22.233C55.081 22.233 55.54 22.1368 55.9537 21.9438C56.355 21.7596 56.7151 21.4966 57.0126 21.1704C57.3101 20.8387 57.5413 20.453 57.6935 20.0342ZM62.6834 24.2872V13.026H69.8885V15.6177H65.3362V24.2872H62.6834ZM79.503 14.5482V13.0266H82.1557V24.2878H79.5023V22.7649C79.1452 23.3289 78.6384 23.7722 77.9807 24.0942C77.3243 24.4161 76.6628 24.577 75.9976 24.577C75.1368 24.577 74.3502 24.4199 73.6366 24.1061C72.9418 23.8057 72.3162 23.3657 71.7987 22.8134C71.287 22.265 70.8827 21.6256 70.6065 20.9283C70.3196 20.2055 70.1749 19.4342 70.1802 18.6566C70.1802 17.8675 70.3217 17.1142 70.6065 16.3968C70.8809 15.6952 71.2854 15.0518 71.7987 14.5004C72.3162 13.948 72.9418 13.5077 73.6366 13.207C74.3502 12.8927 75.1368 12.7355 75.9976 12.7355C76.6628 12.7355 77.3243 12.8971 77.9813 13.2196C78.6384 13.5415 79.1452 13.9848 79.503 14.5482ZM79.259 20.0342C79.4221 19.5935 79.5045 19.1271 79.5023 18.6572C79.5023 18.173 79.4206 17.7141 79.259 17.2789C79.1064 16.8604 78.875 16.4749 78.5774 16.1434C78.2798 15.8173 77.9197 15.5543 77.5186 15.37C77.1048 15.177 76.6465 15.0801 76.1434 15.0801C75.6404 15.0801 75.1858 15.177 74.7803 15.37C74.3747 15.5637 74.0258 15.8215 73.734 16.1434C73.4371 16.4733 73.2094 16.8594 73.0644 17.2789C72.9086 17.7214 72.8303 18.1875 72.833 18.6566C72.833 19.1401 72.9097 19.5997 73.0644 20.0336C73.2092 20.4533 73.4369 20.8397 73.734 21.1698C74.0285 21.4939 74.384 21.7567 74.7803 21.9431C75.1858 22.1368 75.6404 22.233 76.1434 22.233C76.6465 22.233 77.1055 22.1368 77.5186 21.9438C77.9198 21.7596 78.2799 21.4966 78.5774 21.1704C78.8752 20.8387 79.1065 20.453 79.259 20.0342ZM92.7919 13.026H95.4793L91.1245 24.2872H87.7907L83.4359 13.026H86.1232L89.4576 21.6495L92.7919 13.026ZM101.265 12.7367C104.878 12.7367 107.342 15.9151 106.879 19.6356H98.0774C98.0774 20.607 99.0652 22.4851 101.411 22.4851C103.429 22.4851 104.781 20.7227 104.783 20.7214L106.575 22.0984C104.972 23.7974 103.66 24.5777 101.605 24.5777C97.9334 24.5777 95.4453 22.2714 95.4453 18.6572C95.4453 15.3876 98.017 12.7367 101.265 12.7367ZM98.0843 17.6782H104.442C104.423 17.4613 104.078 14.8286 101.244 14.8286C98.4106 14.8286 98.105 17.4613 98.0843 17.6782ZM108.607 24.2872V7.37082H111.26V24.2872H108.607ZM31.9247 7.23878C31.9363 7.28142 31.9423 7.32539 31.9424 7.36957V14.2382C31.9422 14.3266 31.9187 14.4133 31.8742 14.4896C31.8297 14.5659 31.7658 14.6291 31.689 14.6727L25.8829 17.992V24.5708C25.8827 24.659 25.8591 24.7456 25.8146 24.8218C25.7701 24.898 25.7063 24.961 25.6295 25.0046L13.5107 31.933C13.483 31.9493 13.4522 31.9588 13.4226 31.9695C13.4107 31.9732 13.4 31.9802 13.3887 31.9833C13.3038 32.0056 13.2145 32.0056 13.1296 31.9833C13.1158 31.9795 13.1032 31.972 13.09 31.9669C13.0617 31.9575 13.0334 31.9481 13.007 31.933L0.88753 25.0059C0.810732 24.9621 0.746888 24.8988 0.702491 24.8224C0.658094 24.746 0.634727 24.6591 0.634766 24.5708V3.96479C0.634865 3.92061 0.640785 3.87664 0.652371 3.83401C0.656144 3.81892 0.664947 3.80571 0.669977 3.79188C0.680037 3.76547 0.68884 3.73844 0.702673 3.71391C0.712104 3.69757 0.725937 3.68436 0.736626 3.6699C0.751716 3.64978 0.764292 3.6284 0.781897 3.6108C0.796359 3.59633 0.815222 3.58564 0.83157 3.57307C0.849804 3.55924 0.866152 3.54289 0.886901 3.53094L0.88753 3.53031L6.94759 0.0664333C7.02426 0.0228911 7.11092 0 7.1991 0C7.28727 0 7.37393 0.0228911 7.4506 0.0664333L13.5107 3.53031H13.5119C13.532 3.54289 13.5484 3.55924 13.5673 3.57307C13.5836 3.58564 13.6018 3.59633 13.6163 3.6108C13.6339 3.6284 13.6465 3.64978 13.6616 3.66927C13.6729 3.68436 13.6867 3.69757 13.6962 3.71391C13.71 3.73844 13.7188 3.76547 13.7288 3.79188C13.7339 3.80571 13.7421 3.81892 13.7465 3.83401C13.7578 3.87667 13.7635 3.92064 13.7634 3.96479V16.835L18.8137 13.9484V7.36957C18.8136 7.32542 18.8193 7.28144 18.8307 7.23878C18.8351 7.22369 18.8432 7.21112 18.8489 7.19666C18.8583 7.17025 18.8671 7.14321 18.881 7.11869C18.8904 7.10234 18.9042 7.08914 18.9156 7.07468C18.9306 7.05455 18.9432 7.03318 18.9608 7.0162C18.9753 7.00174 18.9935 6.99105 19.0099 6.97847C19.0287 6.96401 19.0451 6.94704 19.0658 6.93572V6.93509L25.1259 3.47121C25.2026 3.42743 25.2894 3.40441 25.3777 3.40441C25.466 3.40441 25.5528 3.42743 25.6295 3.47121L31.689 6.93509C31.7103 6.94766 31.7273 6.96401 31.7462 6.97784C31.7619 6.99042 31.7808 7.00174 31.7952 7.01557C31.8128 7.03318 31.8254 7.05455 31.8399 7.07405C31.8512 7.08914 31.865 7.10234 31.8744 7.11869C31.8889 7.14321 31.8971 7.17025 31.9071 7.19666C31.9128 7.21112 31.921 7.22369 31.9247 7.23878ZM30.9326 13.9484V8.23664L28.8117 9.4489L25.8829 11.1233V16.835L30.9326 13.9484ZM24.8731 24.2809V18.5654L21.9909 20.1989L13.7634 24.8612V30.6302L24.8731 24.2796V24.2809ZM1.64457 4.83186V24.2809L12.7536 30.6314V24.8631L6.95011 21.6023L6.94885 21.6005L6.94633 21.5998C6.92621 21.5885 6.91049 21.5722 6.89226 21.5583C6.87591 21.5458 6.85831 21.5357 6.84384 21.5219L6.84259 21.52C6.82624 21.5043 6.81492 21.4848 6.80109 21.4672C6.78851 21.4508 6.77342 21.4364 6.76336 21.4187L6.76273 21.4169C6.75142 21.398 6.7445 21.3754 6.73633 21.354C6.72815 21.3358 6.71746 21.3181 6.71243 21.298C6.70552 21.2741 6.70489 21.2484 6.70174 21.2238C6.69986 21.205 6.6942 21.1867 6.6942 21.1672V7.7179L3.76603 6.04413L1.64457 4.83186ZM7.1991 1.07938L2.15198 3.96542L7.1991 6.85021L12.2468 3.96479L7.1991 1.07938ZM9.82483 19.086L12.7536 17.4122V4.83186L10.6334 6.04413L7.704 7.71853V20.2983L9.82483 19.086ZM25.378 4.48478L20.3303 7.36957L25.378 10.255L30.4251 7.36957L25.378 4.48478ZM24.8731 11.1233L21.9437 9.4489L19.8235 8.23664V13.9484L22.7523 15.6228L24.8731 16.835V11.1233ZM13.2579 23.9942L20.6616 19.7978L24.3626 17.7002L19.3186 14.8167L13.5107 18.1366L8.2177 21.1622L13.2579 23.9942Z" fill="#08182C"/>
</svg>
