<svg width="136" height="34" viewBox="0 0 136 34" fill="none" xmlns="http://www.w3.org/2000/svg">
<g clip-path="url(#clip0_1670_563)">
<path d="M10.3822 3.50327C9.06306 1.93811 7.92709 0.348494 7.69502 0.0183418C7.67059 -0.00611393 7.63393 -0.00611393 7.60951 0.0183418C7.37743 0.348494 6.24148 1.93811 4.92229 3.50327C-6.40066 17.9443 6.70564 27.6899 6.70564 27.6899L6.81556 27.7633C6.91327 29.2673 7.15757 31.4317 7.15757 31.4317H7.64615H8.13474C8.13474 31.4317 8.37904 29.2795 8.47676 27.7633L8.58668 27.6777C8.59889 27.6899 21.7052 17.9443 10.3822 3.50327ZM7.64615 27.4698C7.64615 27.4698 7.05986 26.9685 6.90106 26.7118V26.6872L7.60951 10.9623C7.60951 10.9133 7.68281 10.9133 7.68281 10.9623L8.39124 26.6872V26.7118C8.23246 26.9685 7.64615 27.4698 7.64615 27.4698Z" fill="#001E2B"/>
<path d="M32.1738 24.2608L26.7123 10.9216L26.7001 10.8848H22.4508V11.7814H23.1365C23.3447 11.7814 23.5406 11.8674 23.6876 12.0148C23.8345 12.1622 23.908 12.3588 23.908 12.5675L23.7856 25.9928C23.7856 26.4103 23.4428 26.7542 23.0263 26.7666L22.3284 26.7788V27.6632H26.4674V26.7788L26.0388 26.7666C25.6225 26.7542 25.2795 26.4103 25.2795 25.9928V13.3413L31.231 27.6632C31.3166 27.8719 31.5125 28.0071 31.733 28.0071C31.9534 28.0071 32.1494 27.8719 32.2351 27.6632L38.0518 13.6607L38.1375 25.9928C38.1375 26.4226 37.7946 26.7666 37.366 26.7788H36.9251V27.6632H41.7744V26.7788H41.1131C40.6968 26.7788 40.3539 26.4226 40.3416 26.005L40.305 12.5798C40.305 12.1499 40.6478 11.806 41.0642 11.7937L41.7744 11.7814V10.8848H37.6353L32.1738 24.2608Z" fill="#001E2B"/>
<path d="M70.2548 26.5453C70.1196 26.41 70.046 26.2255 70.046 26.004V19.4089C70.046 18.154 69.6778 17.1696 68.941 16.4683C68.2167 15.7669 67.2099 15.4102 65.9577 15.4102C64.2019 15.4102 62.8146 16.1238 61.8447 17.5265C61.8324 17.5511 61.7956 17.5634 61.7588 17.5634C61.7219 17.5634 61.6974 17.5387 61.6974 17.5019L61.2431 15.7423H60.4819L58.5298 16.862V17.4772H59.0332C59.2664 17.4772 59.4628 17.5387 59.598 17.6619C59.733 17.7849 59.8066 17.9695 59.8066 18.2278V25.9916C59.8066 26.2131 59.733 26.3977 59.598 26.533C59.4628 26.6683 59.2788 26.7422 59.0578 26.7422H58.5666V27.6404H63.0601V26.7422H62.5691C62.3481 26.7422 62.1639 26.6683 62.0288 26.533C61.8938 26.3977 61.8201 26.2131 61.8201 25.9916V20.8486C61.8201 20.1965 61.9675 19.5443 62.2376 18.9045C62.5199 18.277 62.9373 17.748 63.4899 17.3419C64.0423 16.9359 64.7053 16.739 65.4665 16.739C66.3259 16.739 66.9767 17.0096 67.3818 17.5511C67.787 18.0925 67.9957 18.7938 67.9957 19.6304V25.9794C67.9957 26.2008 67.922 26.3853 67.787 26.5207C67.6519 26.6561 67.4677 26.7298 67.2467 26.7298H66.7557V27.628H71.2492V26.7298H70.7582C70.574 26.7545 70.402 26.6807 70.2548 26.5453Z" fill="#001E2B"/>
<path d="M111.309 11.8891C110.067 11.2277 108.679 10.8848 107.181 10.8848H101.336V11.7789H101.908C102.127 11.7789 102.322 11.8646 102.517 12.0606C102.7 12.2443 102.797 12.4526 102.797 12.6729V25.852C102.797 26.0724 102.7 26.2807 102.517 26.4644C102.334 26.648 102.127 26.746 101.908 26.746H101.336V27.6402H107.181C108.679 27.6402 110.067 27.2972 111.309 26.6358C112.551 25.9744 113.562 24.9945 114.292 23.7453C115.023 22.496 115.4 20.9895 115.4 19.2747C115.4 17.56 115.023 16.0657 114.292 14.8042C113.55 13.5304 112.551 12.5628 111.309 11.8891ZM113.05 19.2502C113.05 20.818 112.77 22.1407 112.222 23.2063C111.674 24.272 110.944 25.068 110.042 25.5826C109.141 26.097 108.143 26.3542 107.071 26.3542H105.89C105.671 26.3542 105.476 26.2684 105.281 26.0724C105.098 25.8887 105.001 25.6805 105.001 25.46V13.0282C105.001 12.8077 105.086 12.6118 105.281 12.4157C105.464 12.232 105.671 12.1341 105.89 12.1341H107.071C108.143 12.1341 109.141 12.3913 110.042 12.9057C110.944 13.4201 111.674 14.2163 112.222 15.2818C112.77 16.3596 113.05 17.6947 113.05 19.2502Z" fill="#001E2B"/>
<path d="M129.217 20.1444C128.676 19.5197 127.633 18.993 126.406 18.7112C128.1 17.8661 128.971 16.6781 128.971 15.1471C128.971 14.3142 128.751 13.5671 128.308 12.9301C127.867 12.2933 127.24 11.7789 126.443 11.4237C125.644 11.0685 124.711 10.8848 123.656 10.8848H117.039V11.7789H117.567C117.788 11.7789 117.985 11.8646 118.181 12.0606C118.365 12.2443 118.463 12.4526 118.463 12.6729V25.852C118.463 26.0724 118.365 26.2807 118.181 26.4644C117.997 26.648 117.788 26.746 117.567 26.746H116.99V27.6402H124.172C125.264 27.6402 126.283 27.4565 127.204 27.0889C128.125 26.7216 128.861 26.1827 129.389 25.4722C129.929 24.7619 130.199 23.8922 130.199 22.8879C130.187 21.81 129.867 20.8914 129.217 20.1444ZM120.98 26.0846C120.796 25.9009 120.697 25.6927 120.697 25.4722V19.5564H124.111C125.313 19.5564 126.234 19.8626 126.872 20.475C127.511 21.0875 127.83 21.8835 127.83 22.8634C127.83 23.4513 127.682 24.027 127.413 24.5536C127.13 25.0926 126.712 25.5213 126.148 25.852C125.595 26.1827 124.908 26.3542 124.111 26.3542H121.594C121.373 26.3542 121.176 26.2684 120.98 26.0846ZM120.71 18.2948V13.0405C120.71 12.82 120.796 12.624 120.992 12.428C121.176 12.2443 121.385 12.1463 121.606 12.1463H123.226C124.392 12.1463 125.252 12.4403 125.792 13.0037C126.332 13.5793 126.602 14.3142 126.602 15.2206C126.602 16.1515 126.344 16.8986 125.841 17.4619C125.337 18.0131 124.577 18.2948 123.57 18.2948H120.71Z" fill="#001E2B"/>
<path d="M53.1484 16.1914C52.2103 15.6787 51.1627 15.4102 50.0298 15.4102C48.8969 15.4102 47.837 15.6665 46.9112 16.1914C45.9731 16.704 45.23 17.4486 44.6819 18.3885C44.1337 19.3284 43.8535 20.427 43.8535 21.6476C43.8535 22.8681 44.1337 23.9668 44.6819 24.9067C45.23 25.8466 45.9731 26.5911 46.9112 27.1038C47.8493 27.6164 48.8969 27.885 50.0298 27.885C51.1627 27.885 52.2225 27.6286 53.1484 27.1038C54.0864 26.5911 54.8295 25.8466 55.3777 24.9067C55.9258 23.9668 56.206 22.8681 56.206 21.6476C56.206 20.427 55.9258 19.3284 55.3777 18.3885C54.8295 17.4486 54.0864 16.704 53.1484 16.1914ZM54.0498 21.6476C54.0498 23.1489 53.6844 24.3695 52.9534 25.2484C52.2348 26.1272 51.248 26.5789 50.0298 26.5789C48.8116 26.5789 47.8248 26.1272 47.1061 25.2484C46.3751 24.3695 46.0097 23.1489 46.0097 21.6476C46.0097 20.1462 46.3751 18.9256 47.1061 18.0467C47.8248 17.1679 48.8116 16.7162 50.0298 16.7162C51.248 16.7162 52.2348 17.1679 52.9534 18.0467C53.6844 18.9256 54.0498 20.1462 54.0498 21.6476Z" fill="#001E2B"/>
<path d="M96.321 16.1914C95.3829 15.6787 94.3353 15.4102 93.2024 15.4102C92.0695 15.4102 91.0096 15.6665 90.0838 16.1914C89.1457 16.704 88.4026 17.4486 87.8545 18.3885C87.3063 19.3284 87.0261 20.427 87.0261 21.6476C87.0261 22.8681 87.3063 23.9668 87.8545 24.9067C88.4026 25.8466 89.1457 26.5911 90.0838 27.1038C91.0219 27.6164 92.0695 27.885 93.2024 27.885C94.3353 27.885 95.3951 27.6286 96.321 27.1038C97.259 26.5911 98.0021 25.8466 98.5503 24.9067C99.0984 23.9668 99.3786 22.8681 99.3786 21.6476C99.3786 20.427 99.0984 19.3284 98.5503 18.3885C98.0021 17.4486 97.2468 16.704 96.321 16.1914ZM97.2225 21.6476C97.2225 23.1489 96.8569 24.3695 96.126 25.2484C95.4072 26.1272 94.4205 26.5789 93.2024 26.5789C91.9841 26.5789 90.9974 26.1272 90.2787 25.2484C89.5477 24.3695 89.1823 23.1489 89.1823 21.6476C89.1823 20.134 89.5477 18.9256 90.2787 18.0467C90.9974 17.1679 91.9841 16.7162 93.2024 16.7162C94.4205 16.7162 95.4072 17.1679 96.126 18.0467C96.8448 18.9256 97.2225 20.1462 97.2225 21.6476Z" fill="#001E2B"/>
<path d="M78.9103 15.4102C77.9287 15.4102 77.0332 15.6186 76.2234 16.0355C75.4136 16.4524 74.7757 17.0166 74.3217 17.74C73.8679 18.4512 73.6347 19.2484 73.6347 20.0945C73.6347 20.8547 73.8065 21.5536 74.1622 22.1791C74.5058 22.78 74.972 23.2826 75.5609 23.6996L73.8065 26.0786C73.5856 26.3728 73.5611 26.7652 73.7206 27.084C73.8923 27.4151 74.2113 27.6114 74.5794 27.6114H75.0824C74.5916 27.9425 74.199 28.3348 73.9291 28.8008C73.6102 29.328 73.4507 29.8798 73.4507 30.4439C73.4507 31.4985 73.9169 32.3692 74.837 33.0191C75.745 33.669 77.0208 34.0001 78.628 34.0001C79.7445 34.0001 80.8118 33.8161 81.781 33.4605C82.7625 33.105 83.5599 32.5776 84.1488 31.891C84.7501 31.2043 85.0568 30.3704 85.0568 29.4139C85.0568 28.4084 84.6887 27.6971 83.8299 27.0105C83.0938 26.4341 81.9405 26.1276 80.5051 26.1276H75.5977C75.5855 26.1276 75.5731 26.1153 75.5731 26.1153C75.5731 26.1153 75.5609 26.0908 75.5731 26.0786L76.8491 24.3618C77.1926 24.5212 77.5116 24.6193 77.7938 24.6805C78.0881 24.7419 78.4195 24.7664 78.7875 24.7664C79.8181 24.7664 80.7505 24.558 81.5602 24.1411C82.3699 23.7241 83.0202 23.1601 83.4864 22.4365C83.9525 21.7254 84.1856 20.9283 84.1856 20.0822C84.1856 19.1747 83.744 17.5193 82.5416 16.6732C82.5416 16.6609 82.554 16.6609 82.554 16.6609L85.1917 16.9552V15.7412H80.9713C80.3088 15.5328 79.6218 15.4102 78.9103 15.4102ZM80.3824 23.0865C79.9162 23.3317 79.4132 23.4666 78.9103 23.4666C78.0883 23.4666 77.3644 23.1723 76.7509 22.596C76.1375 22.0196 75.8308 21.1735 75.8308 20.0945C75.8308 19.0154 76.1375 18.1692 76.7509 17.5929C77.3644 17.0166 78.0883 16.7222 78.9103 16.7222C79.4255 16.7222 79.9162 16.8449 80.3824 17.1023C80.8486 17.3477 81.229 17.7278 81.5357 18.2306C81.8301 18.7334 81.9896 19.3587 81.9896 20.0945C81.9896 20.8425 81.8423 21.4678 81.5357 21.9583C81.2412 22.4611 80.8486 22.8412 80.3824 23.0865ZM77.0576 27.599H80.3824C81.3026 27.599 81.8915 27.783 82.2841 28.1754C82.6767 28.5678 82.873 29.095 82.873 29.7083C82.873 30.6034 82.5172 31.3392 81.8056 31.891C81.094 32.4428 80.1371 32.7248 78.9593 32.7248C77.9287 32.7248 77.0699 32.4919 76.4442 32.0503C75.8185 31.609 75.4995 30.9345 75.4995 30.0761C75.4995 29.5365 75.6467 29.0338 75.9412 28.5924C76.2356 28.1509 76.5914 27.832 77.0576 27.599Z" fill="#001E2B"/>
<path d="M132.688 27.4355C132.446 27.303 132.263 27.1104 132.118 26.8817C131.985 26.641 131.911 26.3882 131.911 26.1113C131.911 25.8344 131.985 25.5696 132.118 25.3409C132.251 25.1001 132.446 24.9196 132.688 24.7871C132.931 24.6548 133.198 24.5825 133.501 24.5825C133.804 24.5825 134.071 24.6548 134.314 24.7871C134.557 24.9196 134.739 25.1122 134.884 25.3409C135.018 25.5816 135.091 25.8344 135.091 26.1113C135.091 26.3882 135.018 26.653 134.884 26.8817C134.751 27.1225 134.557 27.303 134.314 27.4355C134.071 27.5678 133.804 27.6401 133.501 27.6401C133.21 27.6401 132.931 27.5799 132.688 27.4355ZM134.181 27.2669C134.387 27.1586 134.533 26.99 134.654 26.7974C134.763 26.5928 134.824 26.3641 134.824 26.1113C134.824 25.8585 134.763 25.6298 134.654 25.4252C134.544 25.2206 134.387 25.064 134.181 24.9557C133.974 24.8473 133.755 24.7871 133.501 24.7871C133.247 24.7871 133.028 24.8473 132.821 24.9557C132.616 25.064 132.469 25.2326 132.348 25.4252C132.239 25.6298 132.178 25.8585 132.178 26.1113C132.178 26.3641 132.239 26.5928 132.348 26.7974C132.458 27.002 132.616 27.1586 132.821 27.2669C133.028 27.3753 133.247 27.4355 133.501 27.4355C133.755 27.4355 133.987 27.3753 134.181 27.2669ZM132.846 26.8456V26.7372L132.87 26.7253H132.943C132.967 26.7253 132.991 26.7131 133.003 26.7012C133.028 26.6771 133.028 26.6651 133.028 26.641V25.5214C133.028 25.4973 133.016 25.4734 133.003 25.4613C132.979 25.4372 132.967 25.4372 132.943 25.4372H132.87L132.846 25.4252V25.3168L132.87 25.3048H133.501C133.683 25.3048 133.817 25.3409 133.925 25.4252C134.036 25.5094 134.083 25.6178 134.083 25.7622C134.083 25.8706 134.048 25.9788 133.962 26.0511C133.878 26.1354 133.78 26.1836 133.659 26.1956L133.804 26.2437L134.083 26.6891C134.108 26.7253 134.132 26.7372 134.169 26.7372H134.241L134.253 26.7493V26.8576L134.241 26.8697H133.866L133.841 26.8576L133.452 26.2075H133.356V26.641C133.356 26.6651 133.368 26.6891 133.38 26.7012C133.404 26.7253 133.417 26.7253 133.44 26.7253H133.513L133.538 26.7372V26.8456L133.513 26.8576H132.87L132.846 26.8456ZM133.464 26.0511C133.562 26.0511 133.647 26.027 133.696 25.9669C133.743 25.9187 133.78 25.8344 133.78 25.7382C133.78 25.6418 133.755 25.5696 133.708 25.5094C133.659 25.4493 133.585 25.4252 133.501 25.4252H133.452C133.428 25.4252 133.404 25.4372 133.392 25.4493C133.368 25.4732 133.368 25.4854 133.368 25.5094V26.0511H133.464Z" fill="#001E2B"/>
</g>
<defs>
<clipPath id="clip0_1670_563">
<rect width="134.777" height="34" fill="white" transform="translate(0.313965)"/>
</clipPath>
</defs>
</svg>
