<svg width="62" height="24" viewBox="0 0 62 24" fill="none" xmlns="http://www.w3.org/2000/svg">
<path d="M2.56585 23.3004C1.96028 23.3004 1.44553 23.0987 1.02162 22.6951C0.597701 22.2811 0.385742 21.7896 0.385742 21.2205C0.385742 20.6409 0.597701 20.1443 1.02162 19.7303C1.44553 19.3164 1.96028 19.1094 2.56585 19.1094C3.18153 19.1094 3.70133 19.3164 4.12525 19.7303C4.55925 20.1443 4.77626 20.6409 4.77626 21.2205C4.77626 21.7896 4.55925 22.2811 4.12525 22.6951C3.70133 23.0987 3.18153 23.3004 2.56585 23.3004Z" fill="#08182C"/>
<path d="M26.7747 22.959H22.8383L12.4677 6.59796C12.2053 6.184 11.9882 5.75446 11.8167 5.3095H11.7258C11.8066 5.78563 11.847 6.80494 11.847 8.36744V22.959H8.36475V0.699219H12.5584L22.581 16.6722C23.0049 17.3346 23.2775 17.7899 23.3986 18.0382H23.4591C23.3582 17.4485 23.3077 16.4498 23.3077 15.0423V0.699219H26.7747V22.959Z" fill="#08182C"/>
<path d="M43.7316 22.959H31.5442V0.699219H43.2472V3.83491H35.1476V10.1371H42.6114V13.2572H35.1476V19.8389H43.7316V22.959Z" fill="#08182C"/>
<path d="M61.0523 3.83491H54.8147V22.959H51.2114V3.83491H44.989V0.699219H61.0523V3.83491Z" fill="#08182C"/>
</svg>
