<svg width="55" height="48" viewBox="0 0 55 48" fill="none" xmlns="http://www.w3.org/2000/svg">
<g clip-path="url(#clip0_1670_552)">
<path d="M27.7868 28.8085C30.4425 28.8085 32.5954 26.6557 32.5954 24C32.5954 21.3443 30.4425 19.1914 27.7868 19.1914C25.1311 19.1914 22.9783 21.3443 22.9783 24C22.9783 26.6557 25.1311 28.8085 27.7868 28.8085Z" fill="#08182C"/>
<path d="M27.7869 33.8518C42.037 33.8518 53.589 29.4411 53.589 24.0001C53.589 18.5592 42.037 14.1484 27.7869 14.1484C13.5368 14.1484 1.98486 18.5592 1.98486 24.0001C1.98486 29.4411 13.5368 33.8518 27.7869 33.8518Z" stroke="#08182C"/>
<path d="M19.2551 28.9259C26.3802 41.2669 35.976 49.0658 40.688 46.3453C45.4 43.6249 43.4438 31.4152 36.3188 19.0742C29.1937 6.73331 19.5979 -1.06562 14.8859 1.65485C10.1739 4.37532 12.1301 16.585 19.2551 28.9259Z" stroke="#08182C"/>
<path d="M19.2551 19.0741C12.13 31.415 10.1739 43.6247 14.8858 46.3452C19.5978 49.0657 29.1937 41.2667 36.3187 28.9258C43.4437 16.5849 45.3999 4.37519 40.6879 1.65472C35.9759 -1.06575 26.3801 6.73317 19.2551 19.0741Z" stroke="#08182C"/>
</g>
<defs>
<clipPath id="clip0_1670_552">
<rect width="53.9498" height="48" fill="white" transform="translate(0.812012)"/>
</clipPath>
</defs>
</svg>
