<svg width="104" height="32" viewBox="0 0 104 32" fill="none" xmlns="http://www.w3.org/2000/svg">
<path fill-rule="evenodd" clip-rule="evenodd" d="M32.7004 7.89766C32.7093 8.21987 32.7129 8.54153 32.7148 8.86336C32.7171 9.23036 32.7171 9.59745 32.717 9.96441L32.717 10.0099V21.9899L32.717 22.0743C32.717 22.4286 32.717 22.7824 32.7147 23.1368C32.7128 23.4587 32.7092 23.7803 32.7004 24.1019C32.6816 24.8032 32.6402 25.5106 32.5156 26.2036C32.3892 26.9076 32.1826 27.5629 31.857 28.2024C31.5373 28.8308 31.1194 29.4054 30.6209 29.9038C30.1225 30.4025 29.5476 30.8203 28.9192 31.1403C28.2801 31.4656 27.6252 31.672 26.9217 31.7984C26.2279 31.9231 25.5207 31.9646 24.8193 31.9834C24.4972 31.992 24.1755 31.9958 23.8536 31.9976C23.5129 32.0001 23.1719 32 22.8311 32L22.7071 32H10.727L10.6029 32C10.262 32 9.92136 32.0001 9.58069 31.9976C9.25865 31.9958 8.93655 31.992 8.615 31.9834C7.91374 31.9646 7.20597 31.9232 6.51264 31.7984C5.80896 31.672 5.15416 31.4657 4.51497 31.1403C3.88646 30.8203 3.31145 30.4025 2.81322 29.9038C2.31461 29.4055 1.89672 28.8308 1.57704 28.2024C1.25139 27.5629 1.04503 26.9076 0.91852 26.2036C0.794003 25.5106 0.752676 24.8032 0.733818 24.1019C0.724982 23.7803 0.721264 23.4586 0.719163 23.1368C0.716974 22.7989 0.717012 22.4615 0.717051 22.1238C0.717056 22.0791 0.717062 22.0345 0.717062 21.9899V15.2266V10.0099C0.717062 9.96971 0.717058 9.92949 0.717054 9.88926C0.717024 9.54734 0.716993 9.2053 0.719163 8.86331C0.721264 8.54148 0.724982 8.21981 0.733818 7.89761C0.752676 7.19673 0.794056 6.4895 0.91852 5.79612C1.04503 5.09196 1.25139 4.4372 1.57704 3.79754C1.89672 3.16935 2.31461 2.5945 2.81322 2.096C2.93779 1.97137 3.06716 1.85181 3.20094 1.73753C3.6023 1.39474 4.04358 1.09975 4.51492 0.859875C4.67473 0.77857 4.83551 0.704646 4.99774 0.637619C5.4845 0.436376 5.98483 0.296503 6.51248 0.201674C7.03253 0.107976 7.56072 0.0613696 8.0881 0.0359381C8.26391 0.0274789 8.43961 0.0213366 8.61494 0.0165951C8.9365 0.00786652 9.25859 0.00420266 9.58064 0.00220909C9.96265 0 10.3446 0 10.727 0H14.2363H22.7071C23.0891 0 23.4715 0 23.8536 0.00215521C24.1756 0.00414878 24.4973 0.00781264 24.8193 0.0165412C25.5207 0.0355071 26.228 0.0766716 26.9217 0.20162C27.6252 0.328023 28.2801 0.5346 28.9192 0.859875C29.5477 1.17971 30.1225 1.59755 30.6209 2.09605C31.1194 2.59455 31.5373 3.1694 31.857 3.79759C32.1827 4.43726 32.3893 5.09201 32.5157 5.79617C32.6403 6.48956 32.6817 7.19679 32.7004 7.89766ZM26.071 19.7504L26.0732 19.753C28.8227 23.1361 28.0748 26.7624 27.7229 26.0781C26.2858 23.2821 23.6085 23.9959 22.2531 24.6995C22.1406 24.7664 22.0256 24.8298 21.9098 24.8921C21.8964 24.9004 21.8801 24.9093 21.8672 24.9174L21.8694 24.9142C19.0482 26.4133 15.2604 26.5243 11.4513 24.8873C8.25724 23.5145 5.63289 21.163 3.92893 18.4374C4.79537 19.0771 5.73138 19.6401 6.72704 20.1067C10.7525 21.992 14.7955 21.8559 17.6568 20.1049C13.5844 16.9731 10.1853 12.8946 7.57883 9.58911C7.07747 8.99627 6.62138 8.38047 6.23791 7.74097C9.35909 10.5976 14.2893 14.1848 16.0585 15.1777C12.3035 11.2105 8.9948 6.32505 9.14998 6.48146C15.0638 12.4403 20.5202 15.8093 20.5202 15.8093C20.7257 15.9226 20.8787 16.0132 21.0002 16.093C21.1121 15.8058 21.2133 15.5103 21.2976 15.2025C22.2419 11.7508 21.179 7.80384 18.7753 4.54522C24.2605 7.83919 27.502 14.0952 26.1739 19.3868C26.1481 19.4894 26.1185 19.5894 26.089 19.6895C26.083 19.7098 26.077 19.7301 26.071 19.7504Z" fill="#08182C"/>
<path d="M44.8615 20.7667C45.1115 22.9867 47.2289 24.4422 50.1695 24.4422C52.9634 24.4422 54.9777 22.9867 54.9777 20.9727C54.9777 19.2376 53.7574 18.1785 50.9487 17.473L48.2286 16.782C44.3175 15.8115 42.5529 14.0468 42.5529 11.1358C42.5529 7.54816 45.6848 5.06299 50.1403 5.06299C54.4629 5.06299 57.536 7.5626 57.6391 11.1653H54.772C54.5512 8.95972 52.7573 7.60657 50.0668 7.60657C47.4051 7.60657 45.5525 8.97416 45.5525 10.9737C45.5525 12.5322 46.6996 13.4589 49.5227 14.1794L51.7871 14.7674C56.1688 15.841 57.9625 17.5466 57.9625 20.6197C57.9625 24.5309 54.8599 26.9865 49.9194 26.9865C45.332 26.9865 42.2001 24.5453 41.9648 20.7668L44.8615 20.7667Z" fill="#08182C"/>
<path d="M76.1756 26.6333H73.2934L69.9263 14.8998H69.8675L66.5152 26.6333H63.6333L59.3691 11.2676H62.1627L65.1328 23.6042H65.1919L68.5443 11.2676H71.2496L74.6315 23.6042H74.6905L77.6607 11.2676H80.4247L76.1756 26.6333Z" fill="#08182C"/>
<path d="M82.2859 7.13596C82.2859 6.21003 83.0507 5.45996 83.977 5.45996C84.9181 5.45996 85.6826 6.21003 85.6826 7.13596C85.6826 8.06254 84.9181 8.8271 83.977 8.8271C83.0507 8.8271 82.2859 8.06259 82.2859 7.13596ZM82.5802 11.2677H85.3885V26.6334H82.5802V11.2677Z" fill="#08182C"/>
<path d="M103.728 13.5323V11.2676H100.758V7.59203H97.9643V11.2676H95.6853H92.596V9.91508C92.6105 8.54749 93.14 7.97394 94.4046 7.97394C94.8161 7.97394 95.2279 8.01855 95.5662 8.07695V5.87136C95.0661 5.79787 94.6103 5.75391 94.0811 5.75391C91.0815 5.75391 89.8169 7.00404 89.8169 9.87111V11.2676H87.6704V13.5323H89.8169V26.6333H92.6105V13.5323H95.6853H97.9644V22.6047C97.9644 25.5748 99.0967 26.7213 102.037 26.7213C102.67 26.7213 103.39 26.6773 103.714 26.6038V24.3103C103.522 24.3398 102.964 24.3838 102.655 24.3838C101.346 24.3838 100.758 23.7662 100.758 22.3842V13.5323H103.728Z" fill="#08182C"/>
</svg>
