<svg width="108" height="42" viewBox="0 0 108 42" fill="none" xmlns="http://www.w3.org/2000/svg">
<g clip-path="url(#clip0_1670_573)">
<path d="M26.4607 3.28125L21.6045 11.6156L16.7482 3.28125H0.604492L21.6045 39.375L42.6045 3.28125H26.4607Z" fill="#88909A"/>
<path d="M26.4606 3.28125L21.6044 11.6156L16.7481 3.28125H9.00439L21.6044 24.9375L34.2044 3.28125H26.4606Z" fill="#08182C"/>
</g>
<path d="M53.5868 14.2089L57.2302 24.8708H57.3773L61.0207 14.2089H63.1557L58.4447 27.2998H56.1628L51.4518 14.2089H53.5868ZM71.1122 23.2281V17.4816H73.0298V27.2998H71.1505V25.5995H71.0483C70.8224 26.1237 70.4602 26.5605 69.9616 26.9099C69.4673 27.2551 68.8515 27.4276 68.1143 27.4276C67.4836 27.4276 66.9254 27.2892 66.4396 27.0122C65.9581 26.7309 65.5788 26.3154 65.3018 25.7657C65.0291 25.216 64.8927 24.5363 64.8927 23.7267V17.4816H66.8039V23.4965C66.8039 24.1656 66.9893 24.6982 67.36 25.0945C67.7308 25.4909 68.2123 25.689 68.8046 25.689C69.1626 25.689 69.5184 25.5995 69.8721 25.4205C70.2301 25.2416 70.5262 24.971 70.7606 24.6088C70.9992 24.2465 71.1164 23.7863 71.1122 23.2281ZM79.8293 27.498C78.862 27.498 78.0289 27.2913 77.33 26.8779C76.6354 26.4603 76.0985 25.8744 75.7192 25.1201C75.3442 24.3616 75.1567 23.4731 75.1567 22.4546C75.1567 21.449 75.3442 20.5626 75.7192 19.7955C76.0985 19.0285 76.6269 18.4298 77.3045 17.9994C77.9863 17.569 78.7832 17.3538 79.6951 17.3538C80.2491 17.3538 80.786 17.4454 81.3059 17.6286C81.8258 17.8119 82.2924 18.0995 82.7057 18.4916C83.1191 18.8836 83.4451 19.3928 83.6837 20.0193C83.9224 20.6414 84.0417 21.3978 84.0417 22.2884V22.966H76.237V21.5342H82.1688C82.1688 21.0313 82.0665 20.586 81.862 20.1982C81.6574 19.8062 81.3698 19.4972 80.9991 19.2714C80.6326 19.0455 80.2022 18.9326 79.7079 18.9326C79.1709 18.9326 78.7022 19.0647 78.3016 19.3289C77.9053 19.5889 77.5985 19.9298 77.3812 20.3517C77.1681 20.7693 77.0616 21.2231 77.0616 21.7132V22.8318C77.0616 23.488 77.1766 24.0463 77.4067 24.5065C77.6411 24.9667 77.9671 25.3183 78.3847 25.5612C78.8023 25.7998 79.2903 25.9191 79.8485 25.9191C80.2107 25.9191 80.541 25.868 80.8393 25.7657C81.1376 25.6592 81.3954 25.5015 81.6127 25.2927C81.83 25.0839 81.9962 24.8261 82.1113 24.5193L83.9202 24.8453C83.7753 25.3779 83.5154 25.8445 83.1404 26.2451C82.7697 26.6414 82.303 26.9504 81.7405 27.172C81.1823 27.3893 80.5452 27.498 79.8293 27.498ZM87.4215 27.4213C87.072 27.4213 86.7716 27.2977 86.5202 27.0505C86.2688 26.7991 86.1431 26.4965 86.1431 26.1428C86.1431 25.7934 86.2688 25.4951 86.5202 25.248C86.7716 24.9965 87.072 24.8708 87.4215 24.8708C87.7709 24.8708 88.0713 24.9965 88.3228 25.248C88.5742 25.4951 88.6999 25.7934 88.6999 26.1428C88.6999 26.3772 88.6402 26.5924 88.5209 26.7884C88.4059 26.9802 88.2524 27.1336 88.0607 27.2487C87.8689 27.3637 87.6559 27.4213 87.4215 27.4213ZM91.2599 17.4816H93.1711V27.939C93.1711 28.5953 93.0518 29.1492 92.8132 29.6009C92.5788 30.0526 92.2294 30.3957 91.7649 30.6301C91.3046 30.8644 90.7358 30.9816 90.0582 30.9816C89.99 30.9816 89.9261 30.9816 89.8664 30.9816C89.8025 30.9816 89.7365 30.9795 89.6683 30.9752V29.3325C89.7279 29.3325 89.7812 29.3325 89.8281 29.3325C89.8707 29.3325 89.9197 29.3325 89.9751 29.3325C90.4268 29.3325 90.7528 29.211 90.9531 28.9681C91.1576 28.7295 91.2599 28.3822 91.2599 27.9262V17.4816ZM92.2059 15.9667C91.8735 15.9667 91.588 15.8559 91.3494 15.6343C91.115 15.4085 90.9978 15.14 90.9978 14.8289C90.9978 14.5136 91.115 14.2451 91.3494 14.0235C91.588 13.7977 91.8735 13.6847 92.2059 13.6847C92.5383 13.6847 92.8217 13.7977 93.0561 14.0235C93.2947 14.2451 93.414 14.5136 93.414 14.8289C93.414 15.14 93.2947 15.4085 93.0561 15.6343C92.8217 15.8559 92.5383 15.9667 92.2059 15.9667ZM103.1 19.8786L101.367 20.1855C101.295 19.9639 101.18 19.7529 101.022 19.5526C100.869 19.3524 100.66 19.1883 100.396 19.0605C100.132 18.9326 99.8013 18.8687 99.405 18.8687C98.8638 18.8687 98.4121 18.9901 98.0498 19.233C97.6876 19.4717 97.5065 19.7806 97.5065 20.1599C97.5065 20.488 97.628 20.7522 97.8709 20.9525C98.1138 21.1528 98.5058 21.3169 99.047 21.4447L100.607 21.8026C101.51 22.0115 102.183 22.3332 102.627 22.7678C103.07 23.2025 103.291 23.7671 103.291 24.4617C103.291 25.0498 103.121 25.574 102.78 26.0342C102.443 26.4901 101.972 26.8481 101.367 27.108C100.766 27.368 100.07 27.498 99.2771 27.498C98.1777 27.498 97.2807 27.2636 96.5861 26.7948C95.8915 26.3218 95.4653 25.6507 95.3077 24.7813L97.155 24.5001C97.27 24.9816 97.5065 25.346 97.8645 25.5931C98.2224 25.836 98.6891 25.9575 99.2643 25.9575C99.8908 25.9575 100.391 25.8275 100.766 25.5676C101.141 25.3034 101.329 24.9816 101.329 24.6024C101.329 24.2955 101.214 24.0377 100.984 23.8289C100.758 23.6201 100.411 23.4624 99.9419 23.3559L98.28 22.9916C97.3638 22.7828 96.6862 22.4504 96.2473 21.9944C95.8126 21.5384 95.5953 20.961 95.5953 20.2622C95.5953 19.6826 95.7572 19.1755 96.0811 18.7409C96.405 18.3062 96.8524 17.9674 97.4234 17.7245C97.9945 17.4774 98.6486 17.3538 99.3858 17.3538C100.447 17.3538 101.282 17.5839 101.891 18.0441C102.501 18.5001 102.904 19.1116 103.1 19.8786Z" fill="#08182C"/>
<defs>
<clipPath id="clip0_1670_573">
<rect width="42" height="42" fill="white" transform="translate(0.604492)"/>
</clipPath>
</defs>
</svg>
